<?xml version="1.0" standalone="no"?>
<!DOCTYPE svg PUBLIC "-//W3C//DTD SVG 20010904//EN"
 "http://www.w3.org/TR/2001/REC-SVG-20010904/DTD/svg10.dtd">
<svg version="1.0" xmlns="http://www.w3.org/2000/svg"
 width="411.000000pt" height="411.000000pt" viewBox="0 0 411.000000 411.000000"
 preserveAspectRatio="xMidYMid meet">
<metadata>
Created by potrace 1.14, written by Peter Selinger 2001-2017
</metadata>
<g transform="translate(0.000000,411.000000) scale(0.100000,-0.100000)"
fill="#000000" stroke="none">
<path d="M1942 4097 c-181 -14 -398 -82 -572 -179 -156 -87 -345 -251 -471
-408 -114 -142 -228 -335 -302 -515 -27 -66 -93 -267 -100 -306 -3 -13 -10
-42 -16 -64 -5 -22 -13 -56 -15 -75 -3 -19 -7 -46 -10 -60 -7 -37 -17 -115
-25 -210 -8 -91 -6 -417 3 -447 3 -10 8 -43 11 -73 19 -161 95 -451 151 -577
51 -115 118 -249 156 -309 270 -440 671 -722 1118 -790 70 -10 275 -12 338 -2
160 24 164 25 282 64 605 202 1063 829 1175 1607 20 139 25 410 11 567 -24
273 -112 583 -233 825 -37 75 -137 243 -165 280 -85 108 -164 199 -223 258
-44 43 -204 167 -266 206 -133 83 -309 154 -459 185 -140 28 -240 34 -388 23z"/>
</g>
</svg>
