<?xml version="1.0" standalone="no"?>
<!DOCTYPE svg PUBLIC "-//W3C//DTD SVG 20010904//EN"
 "http://www.w3.org/TR/2001/REC-SVG-20010904/DTD/svg10.dtd">
<svg version="1.0" xmlns="http://www.w3.org/2000/svg"
 width="553.000000pt" height="553.000000pt" viewBox="0 0 553.000000 553.000000"
 preserveAspectRatio="xMidYMid meet">
<metadata>
Created by potrace 1.14, written by Peter Selinger 2001-2017
</metadata>
<g transform="translate(0.000000,553.000000) scale(0.100000,-0.100000)"
fill="#000000" stroke="none">
<path d="M2677 5525 c-1 -2 -37 -5 -79 -9 -43 -4 -83 -8 -90 -11 -7 -2 -29 -6
-48 -9 -149 -22 -410 -123 -554 -214 -64 -40 -149 -96 -166 -109 -108 -83
-271 -235 -359 -338 -120 -140 -264 -361 -358 -550 -81 -163 -196 -466 -218
-572 -2 -10 -13 -52 -24 -93 -19 -70 -65 -314 -75 -405 -28 -240 -29 -715 -1
-887 2 -13 6 -45 10 -72 3 -27 12 -83 20 -125 8 -42 16 -87 19 -101 38 -216
156 -559 273 -792 214 -428 531 -786 878 -991 117 -69 362 -172 455 -191 14
-3 36 -8 50 -11 347 -81 732 -35 1066 126 77 38 229 126 256 149 7 6 37 28 66
49 348 254 668 711 845 1206 62 172 134 449 152 585 3 25 8 52 10 60 2 8 7 40
11 70 3 30 8 66 9 80 23 188 23 661 0 789 -1 9 -6 42 -10 75 -8 72 -10 84 -36
221 -53 287 -140 549 -273 820 -60 122 -170 311 -208 360 -4 6 -39 51 -77 101
-304 399 -735 685 -1146 758 -16 3 -41 8 -55 11 -59 12 -333 27 -343 20z"/>
</g>
</svg>
